<svg width="25" height="24" viewBox="0 0 25 24" fill="none" xmlns="http://www.w3.org/2000/svg">
<path d="M4.75 5.5H19.75V7H4.75V5.5Z" fill="#424242"/>
<path d="M2.25 12.5H22.25V9C22.25 7.9 21.35 7 20.25 7H4.25C3.15 7 2.25 7.9 2.25 9V12.5Z" fill="#616161"/>
<path d="M4.25 18H20.25C21.35 18 22.25 17.1 22.25 16V12H2.25V16C2.25 17.1 3.15 18 4.25 18Z" fill="#424242"/>
<path d="M20.25 9.5C20.5261 9.5 20.75 9.27614 20.75 9C20.75 8.72386 20.5261 8.5 20.25 8.5C19.9739 8.5 19.75 8.72386 19.75 9C19.75 9.27614 19.9739 9.5 20.25 9.5Z" fill="#00E676"/>
<path d="M5.75 2H18.75V7H5.75V2Z" fill="#90CAF9"/>
<path d="M19 15.5H5.5C5.1 15.5 4.75 15.15 4.75 14.75C4.75 14.35 5.1 14 5.5 14H19C19.4 14 19.75 14.35 19.75 14.75C19.75 15.15 19.4 15.5 19 15.5Z" fill="#242424"/>
<path d="M5.75 15.5H18.75V21H5.75V15.5Z" fill="#90CAF9"/>
<path d="M5.75 14.5H18.75V15.5H5.75V14.5Z" fill="#42A5F5"/>
<path d="M8.25 16.5H16.75V17.5H8.25V16.5ZM8.25 18.5H14.75V19.5H8.25V18.5Z" fill="#1976D2"/>
</svg>
