<?xml version="1.0" standalone="no"?>
<!DOCTYPE svg PUBLIC "-//W3C//DTD SVG 20010904//EN"
 "http://www.w3.org/TR/2001/REC-SVG-20010904/DTD/svg10.dtd">
<svg version="1.0" xmlns="http://www.w3.org/2000/svg"
 width="484.000000pt" height="516.000000pt" viewBox="0 0 484.000000 516.000000"
 preserveAspectRatio="xMidYMid meet">

<g transform="translate(0.000000,516.000000) scale(0.100000,-0.100000)"
fill="#000000" stroke="none">
<path d="M1138 5033 l-3 -117 -142 3 -143 3 0 -96 c0 -163 -15 -178 -194 -186
l-121 -5 0 -1225 0 -1225 28 -118 c73 -305 167 -509 325 -705 196 -243 431
-398 867 -572 371 -148 556 -248 659 -359 17 -17 35 -31 41 -31 6 0 24 14 41
31 86 91 247 190 479 294 385 172 511 241 657 357 278 220 470 531 604 978
l37 125 -1 435 c0 239 -1 800 -1 1246 l-1 810 -126 0 c-126 -1 -126 -1 -150
27 -21 25 -24 37 -24 117 l0 89 -157 3 -158 3 -3 118 -3 117 -1254 0 -1254 0
-3 -117z m2401 8 c8 -5 11 -16 8 -25 -6 -15 -111 -16 -1151 -16 -1020 0 -1144
2 -1150 15 -4 10 2 19 17 25 29 12 2257 13 2276 1z m-75 -214 c-1 -139 -14
-127 146 -127 l138 0 12 -47 c30 -120 109 -183 233 -183 l37 0 0 -1104 0
-1104 -35 -120 c-158 -552 -382 -831 -852 -1066 -72 -36 -134 -66 -137 -66 -8
0 -122 -53 -234 -108 -114 -57 -161 -86 -254 -154 l-67 -49 -73 56 c-93 71
-234 143 -473 240 -349 142 -534 244 -685 377 -174 152 -306 376 -384 650 -58
202 -56 158 -56 1333 l0 1083 61 11 c34 6 75 19 92 29 47 27 95 97 114 163
l16 58 136 3 136 3 0 108 0 107 1065 0 1065 0 -1 -93z m-2204 -27 c0 -6 -44
-10 -112 -10 -157 0 -153 1 -167 -78 -27 -148 -79 -190 -233 -192 l-48 0 0
-1135 c0 -1105 1 -1138 20 -1233 12 -53 25 -106 29 -117 5 -11 26 -69 46 -130
149 -447 427 -716 965 -933 349 -140 534 -237 634 -332 l51 -49 55 46 c110 92
254 173 550 309 301 138 427 219 586 378 179 178 295 375 392 661 90 264 82
131 82 1421 l0 1142 -95 4 c-75 3 -100 8 -122 24 -39 29 -56 69 -61 141 -5 74
-2 73 -164 73 -72 0 -118 4 -118 10 0 6 58 10 154 10 l154 0 7 -47 c10 -76 41
-130 88 -157 47 -26 123 -45 177 -43 l35 2 6 -1165 7 -1165 -24 -92 c-91 -346
-245 -646 -435 -847 -153 -162 -307 -262 -629 -406 -344 -155 -487 -232 -612
-332 l-27 -21 -35 31 c-106 93 -274 179 -586 301 -499 195 -738 359 -931 639
-106 154 -178 333 -234 578 l-25 109 0 1168 c0 1104 1 1167 18 1169 9 0 27 0
40 -1 12 -1 55 8 94 20 110 32 143 76 164 217 l6 42 149 0 c93 0 149 -4 149
-10z"/>
<path d="M1829 4803 c-1 -5 0 -18 1 -31 1 -13 -10 -41 -24 -62 -14 -21 -28
-51 -32 -67 -3 -15 -18 -62 -31 -105 -16 -48 -23 -86 -19 -102 8 -31 52 -56
100 -56 30 0 37 5 58 43 13 23 28 41 33 41 18 -3 44 -97 45 -158 l0 -58 -88 7
c-101 8 -149 -5 -178 -49 -19 -30 -16 -119 6 -193 12 -39 21 -48 93 -90 l80
-47 28 32 c42 47 38 65 -28 109 -49 32 -58 43 -61 72 -2 18 1 38 6 43 14 14
163 -39 191 -68 23 -25 23 -30 24 -208 l0 -182 -38 -52 c-21 -29 -36 -55 -34
-57 2 -2 33 -5 68 -6 57 -2 65 0 72 18 4 12 16 27 26 34 17 12 19 28 19 129
-1 63 5 140 12 171 l13 56 132 0 c91 0 151 5 192 17 l60 16 46 -50 c39 -43 47
-59 53 -103 12 -102 9 -113 -33 -147 -22 -17 -50 -47 -62 -66 -27 -44 -17 -54
55 -54 38 0 56 6 75 23 14 12 19 14 12 4 -8 -9 -12 -19 -10 -21 2 -2 32 -6 67
-10 59 -7 63 -6 71 17 5 13 16 27 24 30 11 4 17 28 21 84 4 43 11 92 16 109 6
17 11 49 12 71 l1 40 33 -19 c43 -25 151 -43 170 -27 22 18 17 34 -22 76 -49
51 -53 68 -38 134 15 63 10 88 -27 158 -39 71 -102 111 -177 111 -13 0 -37 7
-55 16 -27 15 -57 16 -238 10 l-207 -7 -62 83 c-116 154 -206 234 -310 277
-30 13 -72 34 -92 47 -40 26 -47 28 -49 17z m73 -80 c8 -10 24 -37 36 -60 11
-23 27 -50 33 -61 16 -25 3 -43 -53 -78 -21 -13 -47 -42 -58 -64 -22 -43 -50
-52 -84 -27 -17 12 -18 19 -7 64 7 27 21 64 32 82 19 31 21 32 33 16 15 -21
36 -12 36 16 0 18 -4 20 -30 14 -38 -8 -39 7 -5 57 14 20 25 42 25 47 0 17 25
13 42 -6z m101 -45 c88 -46 227 -193 227 -239 0 -23 -1 -23 -46 -4 -57 23
-112 73 -155 138 -75 112 -80 134 -26 105z m135 -251 c27 -15 72 -30 98 -34
31 -4 55 -14 65 -27 16 -20 27 -21 249 -21 l231 0 41 -43 c39 -42 40 -45 34
-95 -17 -140 -18 -220 -6 -273 10 -42 11 -66 2 -106 -6 -29 -14 -78 -17 -108
-7 -62 -46 -123 -65 -104 -8 8 -4 20 15 42 22 26 27 45 35 129 l9 98 -32 24
c-18 14 -67 60 -110 104 l-79 79 -21 -21 c-12 -11 -40 -27 -62 -36 -50 -21
-201 -36 -282 -28 -52 5 -63 9 -63 24 0 37 -19 27 -34 -19 -28 -84 -47 -205
-45 -282 3 -83 -16 -130 -53 -130 -19 0 -18 1 3 31 21 30 22 41 23 231 1 180
-1 201 -16 209 -35 19 -48 65 -56 201 -7 106 -14 143 -32 182 l-24 49 29 24
28 24 42 -48 c24 -27 65 -61 93 -76z m805 -147 c19 -16 44 -52 56 -80 21 -49
21 -51 5 -113 -16 -58 -16 -66 -1 -95 8 -18 12 -32 8 -32 -4 0 -16 18 -26 40
-10 22 -24 40 -32 40 -17 0 -17 -12 2 -57 20 -47 12 -53 -25 -18 -41 39 -44
55 -26 159 17 96 14 129 -17 164 l-20 22 21 0 c12 0 37 -13 55 -30z m-1040
-67 c60 -5 68 -9 73 -29 13 -50 1 -54 -80 -26 l-75 26 -26 -24 c-18 -17 -25
-34 -25 -59 1 -50 18 -76 74 -111 45 -29 56 -52 25 -58 -8 -1 -40 14 -71 33
-64 40 -78 69 -78 160 0 91 26 103 183 88z m787 -247 l73 -68 -16 -52 c-9 -28
-19 -76 -23 -106 -6 -46 -13 -61 -43 -87 -19 -18 -36 -33 -37 -33 -1 0 -10 3
-19 6 -14 6 -8 15 30 54 l47 48 -7 91 c-7 91 -8 92 -56 150 -27 32 -45 61 -42
65 10 10 15 6 93 -68z m79 -260 c-9 -8 -10 -2 -5 29 3 22 7 47 8 55 1 8 3 -5
5 -29 3 -26 -1 -48 -8 -55z"/>
<path d="M1386 4262 c-8 -16 -36 -48 -61 -73 -26 -24 -61 -57 -77 -73 -41 -39
-69 -106 -76 -178 -6 -72 -15 -60 -32 45 -12 70 -15 77 -36 77 -20 0 -26 -12
-55 -102 -53 -171 -52 -232 7 -319 31 -47 34 -57 26 -88 l-9 -36 -11 38 c-18
65 -82 169 -99 163 -8 -3 -18 -6 -22 -6 -11 0 -25 -118 -25 -200 0 -70 26
-136 78 -198 27 -31 32 -68 20 -132 l-7 -32 -12 28 c-7 16 -33 57 -58 91 -36
49 -50 60 -66 56 -20 -5 -21 -13 -21 -117 0 -130 15 -172 95 -263 38 -44 45
-58 45 -94 l0 -42 -29 44 c-47 70 -95 112 -120 104 -19 -6 -20 -11 -15 -83 11
-148 47 -221 145 -296 32 -25 39 -38 45 -75 3 -25 8 -54 11 -64 2 -10 -17 5
-43 33 -69 74 -97 92 -118 77 -15 -11 -15 -19 2 -107 27 -142 63 -197 170
-266 47 -31 72 -64 72 -97 0 -6 -12 1 -27 15 -16 14 -60 42 -99 61 -67 34 -71
35 -82 16 -10 -15 -8 -26 7 -56 11 -21 31 -63 45 -93 14 -31 40 -70 58 -87 34
-33 145 -93 172 -93 13 0 56 -57 56 -74 0 -3 -22 5 -48 18 -56 28 -168 60
-182 51 -21 -13 -7 -43 55 -127 76 -100 126 -132 244 -152 62 -10 75 -16 100
-47 l29 -35 -100 4 c-97 4 -117 -1 -118 -29 0 -12 158 -133 200 -153 37 -16
63 -20 139 -19 77 2 102 -2 130 -17 20 -11 64 -30 98 -44 69 -27 111 -53 160
-99 18 -17 36 -27 40 -24 4 4 9 34 11 65 l4 59 -123 43 c-190 66 -175 53 -181
162 -4 67 -11 106 -27 140 -31 64 -119 163 -145 163 -19 0 -22 -8 -28 -75 -6
-52 -4 -91 5 -127 16 -60 9 -59 -44 8 l-30 38 17 72 c24 106 15 185 -31 282
-34 70 -40 78 -63 75 -23 -3 -28 -10 -44 -83 -10 -44 -16 -96 -14 -115 5 -33
4 -34 -10 -15 -26 36 -26 59 5 135 43 109 47 157 18 265 -19 76 -27 90 -45 93
-18 3 -26 -7 -48 -55 -14 -32 -32 -78 -38 -102 l-12 -45 -14 33 c-11 28 -11
37 0 55 101 158 112 199 94 354 -6 45 -10 52 -29 52 -24 0 -79 -72 -113 -148
l-19 -44 -12 82 -12 81 49 54 c68 74 93 132 104 239 10 100 7 116 -21 116 -17
0 -92 -77 -134 -140 -17 -24 -17 -24 -17 32 0 56 1 58 55 109 68 64 110 148
125 248 8 59 8 76 -2 83 -23 14 -32 9 -101 -56 -38 -35 -66 -57 -63 -49 3 8 6
32 6 53 0 35 5 42 48 71 100 68 143 123 172 223 10 34 21 69 25 78 4 11 0 20
-15 28 -18 10 -31 4 -100 -44 l-78 -55 8 31 c11 37 2 30 75 58 85 34 142 95
183 195 28 69 30 81 18 93 -13 13 -23 9 -83 -28 l-68 -43 51 52 c63 63 88 114
103 208 6 40 18 93 27 119 8 25 13 52 10 60 -9 23 -35 16 -50 -14z m-37 -177
c-6 -33 -19 -76 -29 -95 -17 -33 -91 -110 -106 -110 -11 0 8 104 25 145 17 37
107 132 117 123 2 -3 -1 -31 -7 -63z m-235 -255 c0 -47 -6 -103 -14 -125 l-13
-40 -19 40 c-21 45 -18 104 9 193 14 43 19 49 27 35 5 -9 9 -56 10 -103z m211
-22 c-13 -46 -61 -102 -112 -130 -29 -17 -53 -26 -53 -20 0 21 67 108 108 139
51 39 66 41 57 11z m-310 -262 c17 -56 20 -172 5 -181 -5 -3 -21 17 -35 44
-25 51 -34 142 -18 200 6 23 7 23 20 5 7 -10 20 -41 28 -68z m220 -13 c-13
-53 -40 -98 -84 -140 -53 -51 -66 -54 -57 -12 10 54 37 98 84 139 53 47 67 50
57 13z m-271 -406 c9 -26 16 -71 16 -99 0 -44 -2 -49 -16 -38 -33 29 -66 101
-71 159 -3 33 -3 68 1 77 6 15 10 12 30 -17 13 -19 31 -56 40 -82z m197 9 c-8
-35 -26 -70 -59 -111 -47 -59 -47 -60 -50 -31 -6 53 20 118 67 169 51 55 59
49 42 -27z m-242 -307 c31 -42 54 -105 66 -174 l7 -40 -41 39 c-23 22 -47 58
-55 80 -18 49 -27 136 -15 136 5 0 22 -18 38 -41z m241 -58 c-11 -47 -75 -151
-92 -151 -12 0 1 106 19 150 8 19 28 50 46 68 l32 33 3 -27 c2 -15 -1 -48 -8
-73z m49 -347 c1 -41 -24 -121 -51 -164 l-22 -35 -7 40 c-12 59 -1 116 33 176
27 46 32 51 39 34 4 -11 8 -34 8 -51z m-245 4 c35 -40 66 -109 81 -177 l7 -34
-29 21 c-60 42 -92 101 -108 195 -8 48 5 47 49 -5z m314 -333 c4 -62 -19 -165
-38 -165 -14 0 -33 99 -28 143 3 23 13 60 22 82 15 36 18 38 28 21 6 -10 13
-47 16 -81z m-255 -15 c59 -37 150 -160 132 -178 -9 -10 -76 30 -115 68 -33
33 -87 140 -71 140 4 0 28 -13 54 -30z m388 -332 c0 -93 -14 -106 -43 -42 -24
52 -32 159 -14 199 7 17 12 13 33 -33 19 -40 24 -68 24 -124z m-236 -6 c48
-24 155 -134 137 -140 -20 -6 -111 28 -143 55 -27 23 -89 104 -89 117 0 8 52
-9 95 -32z m413 -134 c22 -29 45 -69 51 -88 13 -41 17 -117 7 -127 -9 -9 -63
54 -86 102 -18 36 -29 165 -15 165 2 0 22 -24 43 -52z m-114 -207 c33 -16 75
-41 91 -56 l30 -26 -72 4 c-80 5 -135 30 -188 87 l-30 33 54 -6 c29 -4 81 -20
115 -36z"/>
<path d="M3322 4096 c-36 -41 -44 -74 -38 -147 9 -101 15 -111 82 -144 l62
-30 5 -90 c2 -49 8 -98 12 -108 4 -10 27 -29 51 -43 24 -14 44 -28 44 -30 0
-3 -9 -23 -21 -46 -12 -23 -27 -59 -35 -81 -13 -37 -13 -42 13 -90 15 -27 44
-63 64 -79 l37 -30 -22 -33 c-45 -65 -50 -91 -32 -139 9 -25 35 -65 57 -90
l40 -45 -29 -33 c-16 -18 -43 -55 -59 -82 -27 -43 -30 -53 -21 -85 15 -52 36
-92 69 -127 l30 -31 -30 -39 c-16 -21 -38 -48 -48 -59 -59 -62 -75 -94 -68
-134 7 -43 57 -155 73 -165 15 -9 -26 -46 -81 -75 -77 -39 -82 -49 -82 -162
l0 -98 -36 -16 c-19 -9 -57 -17 -83 -18 -44 -2 -51 -5 -76 -42 -35 -51 -50
-104 -50 -176 l0 -57 -92 -60 c-111 -71 -177 -105 -238 -123 -63 -18 -80 -35
-80 -80 0 -54 25 -66 93 -44 70 23 216 98 304 157 72 48 73 48 155 48 80 0
131 9 190 32 16 6 46 37 70 72 41 58 43 64 43 134 l0 73 75 39 c84 45 122 79
126 112 1 13 6 50 9 84 6 49 3 72 -12 117 l-20 55 44 44 c24 23 55 61 67 83
22 36 23 47 16 115 -8 84 -16 104 -54 137 -14 13 -26 28 -26 34 0 5 30 40 66
75 l66 65 -7 47 c-9 66 -42 130 -75 147 -46 24 -43 40 14 100 76 79 82 96 53
170 -18 47 -32 66 -65 88 -23 16 -42 34 -42 40 0 7 13 32 30 57 43 64 46 90
17 147 -29 55 -60 87 -101 103 -24 9 -27 14 -22 38 23 103 26 132 21 172 -6
41 -11 48 -58 78 -35 22 -64 32 -91 32 -32 0 -37 3 -31 18 15 35 18 161 5 177
-30 37 -95 63 -171 69 l-76 7 -31 -35z m128 -20 c26 -1 58 -9 73 -19 27 -18
27 -18 10 -47 -21 -36 -36 -42 -69 -30 -39 15 -41 13 -50 -37 -8 -39 -14 -48
-38 -56 -38 -13 -45 1 -45 85 0 75 26 126 58 112 9 -4 36 -7 61 -8z m101 -163
c-8 -27 -19 -42 -38 -50 -16 -7 -35 -18 -44 -24 -10 -7 -27 -9 -44 -5 l-29 7
25 12 c13 7 28 27 33 44 8 26 14 31 31 27 13 -3 31 3 46 15 13 10 25 18 27 16
2 -2 -1 -20 -7 -42z m56 -98 c28 4 47 1 71 -14 39 -25 40 -44 6 -77 -24 -25
-39 -27 -87 -8 -12 4 -17 -4 -22 -33 -9 -57 -18 -68 -56 -68 l-34 0 -6 65
c-10 97 26 164 73 139 9 -5 34 -7 55 -4z m112 -174 c-10 -50 -11 -51 -47 -51
-20 0 -52 -9 -69 -20 -18 -11 -40 -17 -48 -14 -11 5 -7 11 17 23 22 11 35 26
40 48 6 22 13 30 22 27 18 -7 86 24 86 39 0 6 2 8 5 5 3 -3 0 -28 -6 -57z m-3
-116 c9 -14 25 -25 36 -25 25 0 75 -50 84 -84 7 -31 -12 -51 -59 -62 -24 -5
-35 0 -64 27 -31 31 -35 32 -44 16 -6 -9 -21 -29 -33 -44 -22 -25 -27 -26 -62
-17 -37 9 -39 11 -36 44 1 19 11 44 21 55 10 11 21 33 25 48 7 31 58 67 93 67
13 0 30 -11 39 -25z m19 -219 c11 -3 35 -2 54 4 32 9 33 9 18 -13 -10 -16 -28
-24 -65 -28 -28 -4 -65 -17 -82 -29 l-31 -22 -34 27 c-44 33 -44 42 0 37 29
-4 40 1 63 26 23 25 29 28 42 17 8 -7 24 -15 35 -19z m49 -92 c9 -8 16 -20 16
-25 0 -5 15 -15 33 -23 33 -13 67 -65 67 -100 0 -19 -38 -36 -80 -36 -22 0
-33 8 -50 36 l-23 36 -38 -38 c-40 -39 -62 -41 -104 -10 -19 14 -19 15 -2 50
9 20 21 36 27 36 6 0 15 11 20 25 11 29 65 65 97 65 12 0 29 -7 37 -16z m43
-227 l46 0 -38 -32 c-30 -26 -50 -34 -98 -39 -65 -7 -78 0 -118 55 l-18 26 47
-5 c39 -3 50 0 66 17 l19 21 24 -22 c17 -16 35 -21 70 -21z m-28 -144 c7 -16
27 -37 44 -48 21 -13 37 -35 47 -63 18 -53 8 -65 -57 -66 -44 -1 -48 1 -68 35
l-20 37 -40 -34 c-48 -40 -61 -41 -100 -10 l-29 24 28 36 c15 21 45 55 65 77
32 33 44 39 78 39 35 0 42 -4 52 -27z m-53 -198 c7 -18 66 -35 96 -28 23 6 23
6 4 -16 -48 -53 -145 -74 -192 -41 -19 15 -54 59 -54 70 0 3 19 4 43 2 30 -3
47 1 56 12 17 20 40 21 47 1z m55 -195 c45 -45 50 -54 56 -109 l6 -61 -37 -15
c-52 -22 -84 -11 -103 36 -8 22 -18 39 -22 39 -4 0 -22 -16 -41 -35 -39 -40
-64 -44 -97 -13 -31 29 -29 41 11 75 18 15 37 38 40 50 11 35 73 83 108 83 24
0 42 -11 79 -50z m-23 -242 l42 1 -18 -24 c-9 -12 -31 -32 -47 -44 -26 -17
-37 -19 -65 -11 -18 5 -43 7 -55 4 -25 -6 -48 16 -70 69 -13 33 -6 53 10 27
12 -19 62 -11 86 14 l24 25 25 -31 c21 -25 33 -30 68 -30z m-75 -129 c48 -22
74 -104 58 -181 -11 -51 -15 -56 -43 -62 -41 -8 -82 13 -86 44 -1 14 -5 35 -7
47 l-5 23 -56 -28 -56 -27 -24 30 c-32 40 -27 56 26 83 25 12 50 28 55 35 33
43 90 58 138 36z m-202 -224 c10 -3 32 1 49 10 31 16 31 16 41 -15 11 -30 52
-59 86 -61 10 0 -9 -13 -41 -29 l-59 -29 -29 20 c-16 12 -41 24 -56 28 -32 9
-52 43 -52 89 l0 33 22 -20 c12 -12 30 -23 39 -26z m19 -142 c28 -23 31 -31
27 -61 -4 -18 -1 -42 5 -51 13 -21 -8 -71 -47 -113 -22 -23 -29 -26 -57 -17
-53 15 -70 38 -58 79 16 56 14 62 -20 56 -16 -3 -44 -9 -60 -12 -27 -5 -32 -2
-45 30 -8 19 -15 42 -15 50 0 16 49 36 89 36 14 0 35 7 45 15 33 25 100 19
136 -12z m-222 -158 c41 0 42 -1 42 -33 0 -34 36 -82 62 -82 9 0 9 -3 -2 -10
-8 -5 -57 -10 -108 -10 l-93 0 -72 -47 c-90 -59 -293 -163 -318 -163 -34 0
-20 16 24 29 60 18 199 93 290 157 l77 55 0 78 c0 43 3 80 6 84 4 3 16 -8 28
-26 19 -27 28 -32 64 -32z"/>
<path d="M2312 3431 c-24 -4 -53 -28 -115 -96 -176 -193 -270 -258 -442 -310
-133 -40 -199 -79 -292 -172 -46 -46 -83 -87 -83 -93 0 -7 332 -10 1005 -10
553 0 1005 3 1005 6 0 25 -210 248 -330 349 -86 73 -218 158 -295 190 -38 16
-79 36 -90 46 -11 10 -51 36 -90 58 -68 40 -72 41 -155 40 -47 -1 -100 -4
-118 -8z"/>
<path d="M1375 2700 c-5 -8 11 -106 20 -120 11 -18 170 -61 226 -62 33 0 85 9
130 23 99 32 220 31 337 -4 l82 -24 83 29 c67 24 98 30 169 30 48 0 102 -5
120 -11 18 -5 67 -15 109 -22 84 -13 144 -5 235 32 50 20 54 20 100 4 27 -10
90 -20 140 -22 75 -5 104 -2 162 16 67 20 70 22 76 58 3 21 6 48 6 59 l0 22
-62 -20 c-100 -31 -198 -34 -298 -9 l-85 21 -70 -20 c-89 -26 -172 -25 -288 1
-127 29 -237 23 -327 -16 -79 -34 -105 -34 -195 -2 -116 40 -169 43 -293 12
-131 -33 -215 -31 -310 7 -34 14 -64 22 -67 18z"/>
<path d="M3280 2507 c-86 -31 -192 -34 -282 -7 -73 21 -76 21 -124 5 -78 -28
-194 -30 -304 -6 -151 34 -231 28 -352 -26 l-57 -25 -78 27 c-118 42 -215 45
-333 10 -111 -33 -178 -30 -279 10 -36 14 -67 25 -69 25 -7 0 9 -93 19 -112
13 -25 158 -68 228 -68 32 0 83 9 114 19 88 30 153 35 250 17 47 -9 104 -23
126 -31 38 -13 45 -12 86 5 84 36 186 51 267 40 40 -6 89 -15 108 -20 105 -26
218 -17 303 27 24 12 34 11 85 -4 80 -23 181 -22 268 5 l71 22 10 50 c6 28 7
52 4 54 -3 2 -31 -6 -61 -17z"/>
<path d="M2375 2343 c-41 -5 -122 -32 -169 -55 l-38 -20 -72 27 c-109 41 -217
45 -324 11 -46 -14 -100 -26 -120 -26 -42 0 -118 19 -176 45 -21 9 -40 14 -42
12 -2 -2 2 -30 9 -62 l13 -59 75 -27 c99 -37 180 -38 280 -3 89 31 169 29 292
-7 l78 -22 87 29 c103 34 209 38 309 10 90 -24 185 -23 258 4 73 27 89 27 190
5 77 -18 83 -18 159 0 43 10 86 26 96 34 11 9 22 37 26 65 6 46 5 49 -12 41
-114 -48 -227 -54 -331 -19 -50 16 -56 16 -105 0 -88 -29 -184 -32 -284 -8
-101 24 -156 30 -199 25z"/>
<path d="M2295 2136 c-33 -13 -72 -29 -87 -36 -24 -11 -36 -9 -100 14 -113 42
-190 45 -290 11 -108 -37 -180 -38 -268 -2 -35 14 -66 24 -68 22 -3 -2 8 -30
24 -62 29 -58 29 -58 109 -85 99 -34 123 -34 216 -2 64 22 86 25 159 21 49 -3
111 -15 147 -27 l62 -22 68 28 c94 38 175 42 299 14 114 -26 173 -23 254 12
55 24 55 24 110 7 76 -24 162 -23 233 4 54 20 61 26 79 70 12 26 18 50 15 54
-3 3 -25 -2 -49 -12 -70 -28 -193 -31 -274 -7 -68 21 -69 21 -124 2 -72 -25
-174 -25 -270 0 -98 26 -170 25 -245 -4z"/>
<path d="M2322 1954 c-29 -7 -65 -20 -80 -28 -25 -13 -34 -12 -87 6 -91 31
-175 34 -276 9 -106 -26 -177 -26 -249 -1 -30 10 -56 17 -57 16 -2 -1 13 -25
33 -53 33 -48 38 -51 110 -68 l74 -17 107 27 c115 29 150 29 268 -1 56 -15 63
-15 132 6 81 24 154 24 280 0 68 -13 77 -13 150 9 75 21 81 21 138 7 75 -20
137 -20 203 -1 42 13 58 24 79 56 14 22 24 41 21 44 -2 2 -26 -2 -53 -10 -56
-17 -202 -19 -260 -4 -53 14 -58 14 -145 -6 -71 -16 -78 -15 -177 4 -118 24
-139 25 -211 5z"/>
<path d="M1707 1772 c-14 -3 -12 -13 16 -68 24 -50 36 -64 54 -64 17 0 30 -15
59 -72 68 -130 215 -259 357 -313 37 -14 47 -22 47 -41 0 -12 2 -29 5 -36 3
-8 -7 -28 -22 -44 -31 -33 -83 -110 -83 -124 0 -5 120 -9 280 -10 197 0 280 3
280 10 0 16 -50 102 -72 123 -12 12 -18 33 -18 66 l0 48 87 43 c107 53 228
167 293 278 23 39 46 72 50 72 12 0 120 113 120 125 0 9 -1407 16 -1453 7z
m1333 -67 c-11 -13 -94 -15 -635 -15 -544 0 -624 2 -629 15 -5 13 70 15 636
15 568 0 639 -2 628 -15z m-70 -72 c0 -26 -73 -127 -134 -187 -247 -247 -639
-240 -870 15 -29 33 -68 87 -85 119 l-32 60 560 0 c309 0 561 -3 561 -7z
m-405 -403 c-3 -5 -15 -10 -26 -10 -10 0 -19 5 -19 10 0 6 12 10 26 10 14 0
23 -4 19 -10z m-5 -57 c0 -5 3 -18 6 -30 l6 -23 -146 0 c-80 0 -146 2 -146 5
0 2 5 16 12 30 11 25 12 25 140 25 70 0 128 -3 128 -7z m64 -108 c5 -13 -21
-15 -199 -15 -187 0 -218 4 -198 23 3 4 93 7 199 7 161 0 193 -2 198 -15z"/>
<path d="M4458 1938 c-116 -142 -221 -323 -273 -470 -18 -50 -33 -78 -45 -81
-10 -2 -48 -51 -85 -107 -227 -351 -480 -579 -818 -740 -267 -127 -501 -179
-796 -180 -183 0 -317 16 -486 60 -363 93 -724 320 -982 615 -86 98 -223 280
-223 295 0 6 -15 17 -34 25 -30 13 -37 23 -56 82 -32 98 -120 265 -192 364
-95 130 -121 159 -137 150 -11 -7 -9 -24 8 -92 25 -103 38 -219 24 -219 -6 0
-30 25 -53 55 -94 121 -290 260 -290 205 0 -6 23 -49 51 -97 117 -204 196
-394 260 -628 17 -60 36 -113 42 -117 7 -4 35 -5 62 -2 l51 6 37 -60 c108
-175 322 -407 494 -534 297 -221 635 -363 1008 -423 134 -22 510 -31 657 -16
142 15 200 25 365 67 386 98 779 330 1024 605 88 98 187 230 239 318 l43 72
60 -3 61 -3 38 140 c61 219 149 428 259 611 50 83 56 99 40 108 -16 10 -146
-92 -239 -188 -51 -53 -96 -96 -99 -96 -13 0 7 168 27 233 30 98 15 114 -42
45z m-7 -119 c-18 -84 -25 -208 -11 -224 20 -24 33 -17 70 37 47 69 137 165
194 206 25 18 46 31 46 28 0 -3 -16 -33 -37 -67 -58 -99 -138 -275 -174 -384
-41 -120 -36 -112 -52 -94 -44 53 -148 92 -233 88 -24 -2 -46 0 -49 3 -6 6 42
134 77 201 46 93 165 264 175 253 2 -2 -1 -23 -6 -47z m-3994 -66 c72 -106
111 -177 145 -263 46 -117 50 -107 -45 -112 -95 -5 -191 -43 -202 -79 -10 -29
-19 -15 -45 66 -44 135 -125 312 -202 443 -11 17 -16 32 -11 32 23 0 154 -125
208 -198 92 -125 117 -107 96 67 -6 53 -14 107 -18 120 -10 39 10 19 74 -76z
m3882 -394 c27 -5 57 -19 66 -29 16 -18 15 -24 -39 -133 -285 -581 -806 -968
-1488 -1107 -314 -63 -729 -52 -1051 31 -459 117 -869 373 -1137 709 -124 156
-292 442 -276 469 12 18 107 41 170 41 109 0 125 -9 191 -106 117 -172 281
-351 435 -475 350 -281 790 -439 1225 -439 628 0 1228 321 1584 845 37 55 78
119 91 142 24 43 24 43 110 56 47 8 69 7 119 -4z m136 -151 c-2 -7 -9 -32 -15
-55 -10 -39 -30 -60 -30 -30 0 15 37 97 44 97 3 0 3 -6 1 -12z m-4065 -105 c1
-29 -20 -10 -30 28 -6 22 -13 48 -16 57 -3 9 6 -3 20 -28 14 -25 25 -51 26
-57z"/>
<path d="M4031 1067 c-8 -10 -1 -29 31 -78 22 -35 42 -66 44 -68 2 -2 10 -1
19 3 13 5 14 10 5 27 -15 28 9 66 41 65 14 -1 25 6 27 15 2 11 -15 19 -70 32
-87 21 -83 20 -97 4z m79 -47 c0 -5 -4 -10 -9 -10 -6 0 -13 5 -16 10 -3 6 1
10 9 10 9 0 16 -4 16 -10z"/>
<path d="M717 1024 c-46 -37 -56 -49 -47 -60 10 -11 16 -11 36 3 32 21 40 11
26 -33 -15 -49 12 -101 50 -96 31 4 48 -16 45 -53 -4 -53 22 -37 58 36 33 64
35 73 22 87 -14 13 -22 12 -79 -11 -35 -14 -65 -23 -67 -21 -2 1 -1 15 3 29 5
18 13 25 31 25 28 0 56 35 47 59 -8 21 -53 81 -61 81 -3 -1 -32 -21 -64 -46z
m83 -19 c10 -12 10 -19 2 -27 -15 -15 -48 14 -38 31 10 15 21 14 36 -4z m55
-154 c-3 -6 -11 -8 -17 -5 -6 4 -5 9 3 15 16 10 23 4 14 -10z"/>
<path d="M3971 987 c-8 -10 0 -22 34 -51 49 -40 56 -56 26 -56 -19 0 -35 -23
-24 -34 13 -12 51 -5 66 12 26 28 21 47 -23 88 -52 50 -65 57 -79 41z"/>
<path d="M3867 862 l-37 -38 55 -53 c47 -44 58 -51 71 -41 13 12 12 16 -6 35
-30 32 -25 38 24 32 30 -4 47 -2 55 7 14 17 4 26 -29 26 -21 0 -28 7 -35 33
-15 48 -50 48 -98 -1z m63 -16 c0 -22 -29 -41 -42 -28 -8 8 -8 15 2 27 16 19
40 20 40 1z"/>
<path d="M902 787 c-44 -44 -51 -56 -39 -65 11 -9 18 -8 32 8 17 19 18 19 43
0 13 -11 32 -20 42 -20 20 0 50 31 50 51 0 14 -59 79 -71 79 -2 0 -28 -24 -57
-53z m86 -20 c2 -10 -3 -17 -11 -17 -18 0 -39 24 -30 34 12 12 38 2 41 -17z"/>
<path d="M3764 765 c-5 -13 21 -93 48 -148 13 -26 40 -3 32 27 -6 27 17 50 54
51 48 0 33 22 -39 53 -82 37 -88 38 -95 17z m69 -62 c-5 -12 -7 -12 -14 -1
-13 20 -11 28 5 22 8 -3 12 -12 9 -21z"/>
<path d="M1004 703 c-20 -27 -41 -53 -46 -59 -5 -7 -3 -16 5 -23 11 -9 25 2
66 51 39 45 49 63 39 69 -21 13 -23 12 -64 -38z"/>
<path d="M3692 708 c-9 -9 -7 -17 8 -33 l20 -22 -20 -18 c-20 -18 -21 -18 -43
3 -17 17 -26 19 -35 10 -11 -11 -9 -14 70 -112 20 -24 26 -26 36 -13 10 11 8
19 -9 41 -21 26 -21 28 -3 41 26 20 29 19 49 -11 15 -24 18 -25 33 -11 14 14
10 22 -37 76 -29 34 -54 61 -55 61 -1 0 -7 -5 -14 -12z"/>
<path d="M1046 656 c-25 -29 -46 -58 -46 -65 0 -17 21 -13 45 9 19 18 23 19
44 4 l22 -16 -22 -24 c-20 -21 -21 -26 -8 -39 12 -13 20 -7 63 46 36 45 46 63
38 71 -9 9 -18 6 -35 -10 l-24 -22 -18 20 c-17 19 -17 21 -1 39 17 19 15 41
-4 41 -5 0 -29 -24 -54 -54z"/>
<path d="M3548 599 c-14 -8 -14 -16 -2 -81 8 -39 12 -73 10 -75 -2 -2 -15 2
-29 8 -20 9 -24 16 -17 29 12 22 -14 60 -41 60 -11 0 -37 -10 -59 -22 l-38
-22 29 -56 c39 -77 43 -82 62 -74 15 5 15 9 1 35 -13 26 -13 29 1 29 9 0 28
-6 44 -14 24 -13 30 -13 60 6 22 14 31 27 28 39 -7 27 37 53 63 37 14 -9 22
-10 31 -1 8 8 -5 23 -48 55 -75 58 -76 58 -95 47z m56 -70 c-8 -14 -24 -10
-24 6 0 9 6 12 15 9 8 -4 12 -10 9 -15z m-130 -43 c-8 -20 -36 -29 -45 -14 -9
14 7 28 33 28 11 0 15 -5 12 -14z"/>
<path d="M1305 465 c-14 -58 -16 -78 -7 -87 9 -9 20 -4 45 20 41 40 48 40 36
0 -13 -46 -11 -58 8 -65 12 -5 30 9 65 48 l49 54 -27 -56 c-25 -52 -27 -89 -6
-89 8 0 72 123 72 139 0 5 -14 14 -30 21 -29 12 -33 11 -61 -16 l-30 -29 7 42
c9 57 -14 68 -57 27 l-31 -29 7 28 c12 46 11 61 -5 64 -12 3 -20 -15 -35 -72z"/>
<path d="M1552 417 c-16 -22 -52 -129 -46 -138 11 -19 33 -8 39 21 9 42 21 37
29 -10 4 -24 14 -43 25 -50 17 -9 22 -3 45 58 14 37 26 73 26 80 0 24 -31 11
-41 -18 -15 -42 -26 -37 -33 14 -7 45 -27 65 -44 43z"/>
<path d="M3143 393 c-9 -3 -13 -31 -13 -90 0 -74 2 -84 16 -79 9 3 18 6 20 6
2 0 4 8 4 18 0 26 50 49 65 30 10 -14 45 -13 45 1 0 8 -113 121 -120 120 -3 0
-11 -3 -17 -6z m47 -68 c10 -12 10 -15 -4 -15 -9 0 -16 7 -16 15 0 8 2 15 4
15 2 0 9 -7 16 -15z"/>
<path d="M3041 359 c-30 -11 -58 -24 -62 -30 -4 -7 -12 -8 -18 -4 -7 4 -34 1
-62 -5 -41 -10 -49 -15 -44 -31 3 -10 7 -27 9 -36 25 -96 27 -102 42 -96 9 3
15 16 14 32 -3 43 -1 44 35 17 24 -18 42 -25 55 -21 19 6 18 8 -11 32 -21 18
-27 29 -20 36 6 6 11 21 11 33 0 13 8 24 20 27 16 4 22 -4 36 -47 20 -62 30
-74 46 -58 9 9 8 24 -5 64 -17 54 -15 68 9 68 15 0 18 9 6 26 -5 8 -23 6 -61
-7z m-93 -81 c-7 -20 -48 -23 -48 -4 0 11 9 16 26 16 16 0 24 -5 22 -12z"/>
<path d="M1683 298 c-53 -64 -57 -94 -9 -69 29 16 66 6 66 -19 0 -15 18 -30
37 -30 12 0 -6 163 -19 171 -20 13 -21 13 -75 -53z m53 -25 c-10 -10 -19 5
-10 18 6 11 8 11 12 0 2 -7 1 -15 -2 -18z"/>
<path d="M1819 288 c-26 -95 -27 -107 -12 -112 22 -9 22 -9 29 29 8 43 20 45
28 3 7 -35 23 -58 40 -58 16 0 50 140 37 153 -14 14 -28 1 -36 -35 -7 -36 -10
-32 -35 35 -14 40 -37 34 -51 -15z"/>
<path d="M2753 289 c-37 -11 -37 -9 -21 -96 l12 -65 48 6 c27 4 55 9 64 13 28
11 7 28 -34 28 -48 0 -55 16 -12 30 37 13 35 30 -5 31 -42 1 -43 17 -1 27 43
11 49 37 9 36 -16 0 -43 -5 -60 -10z"/>
<path d="M1970 265 c-53 -56 -19 -135 59 -135 46 0 56 8 64 46 6 29 4 32 -25
38 -17 3 -34 6 -39 6 -15 0 -10 -29 7 -38 22 -12 1 -26 -25 -17 -25 8 -33 29
-21 60 13 33 36 42 59 21 20 -18 51 -22 51 -6 0 6 -9 19 -20 30 -29 29 -81 26
-110 -5z"/>
<path d="M2649 250 c-24 -31 -39 -31 -39 1 0 20 -8 23 -27 11 -9 -6 -9 -25 -1
-80 9 -60 14 -72 29 -72 14 0 19 7 19 29 0 42 13 45 39 11 21 -30 61 -41 61
-18 0 7 -14 27 -32 45 l-32 33 22 30 c27 36 27 40 2 40 -11 0 -29 -13 -41 -30z"/>
<path d="M2110 207 c0 -73 17 -97 67 -97 41 0 59 25 66 93 4 46 3 59 -9 64
-21 8 -23 3 -32 -63 -6 -50 -10 -59 -27 -59 -18 0 -20 7 -20 63 0 58 -2 62
-22 62 -21 0 -23 -4 -23 -63z"/>
<path d="M2260 180 c0 -73 2 -80 19 -80 16 0 20 8 23 43 l3 42 24 -42 c15 -26
32 -43 43 -43 16 0 18 9 18 80 0 63 -3 80 -14 80 -10 0 -16 -14 -18 -42 l-3
-43 -28 43 c-17 26 -35 42 -47 42 -18 0 -20 -7 -20 -80z"/>
</g>
</svg>
